<?xml version="1.0" encoding="UTF-8"?>
<!DOCTYPE svg PUBLIC "-//W3C//DTD SVG 1.1//EN" "http://www.w3.org/Graphics/SVG/1.1/DTD/svg11.dtd">
<!-- Creator: CorelDRAW X8 -->
<svg xmlns="http://www.w3.org/2000/svg" xml:space="preserve" width="210mm" height="297mm" version="1.1" style="shape-rendering:geometricPrecision; text-rendering:geometricPrecision; image-rendering:optimizeQuality; fill-rule:evenodd; clip-rule:evenodd"
viewBox="0 0 21000 29700"
 xmlns:xlink="http://www.w3.org/1999/xlink">
 <defs>
  <style type="text/css">
   <![CDATA[
    .fil0 {fill:#FEFEFE;fill-rule:nonzero}
   ]]>
  </style>
 </defs>
 <g id="Camada_x0020_1">
  <metadata id="CorelCorpID_0Corel-Layer"/>
  <g id="_2147346794592">
   <path class="fil0" d="M6559 15999l690 -689 690 689c126,127 333,127 459,0 127,-126 127,-333 0,-459l-364 -365 -650 0 -135 135 -135 -135 -650 0 -365 365c-126,126 -126,333 0,459 127,127 334,127 460,0zm690 -1609l-690 -689c-126,-127 -333,-127 -460,0 -126,126 -126,333 0,459l365 365 650 0 135 -135 135 135 650 0 364 -365c127,-126 127,-333 0,-459 -126,-127 -333,-127 -459,0l-690 689z"/>
   <path class="fil0" d="M6464 15175l325 -325 -325 -325 -516 0c-178,0 -325,146 -325,325 0,179 147,325 325,325l516 0zm1570 -650l-325 325 325 325 515 0c179,0 325,-146 325,-325 0,-179 -146,-325 -325,-325l-515 0z"/>
   <path class="fil0" d="M7249 13875c179,0 325,-147 325,-325 0,-179 -146,-326 -325,-326 -179,0 -325,147 -325,326 0,178 146,325 325,325zm325 2275c0,-178 -146,-325 -325,-325 -179,0 -325,147 -325,325 0,179 146,326 325,326 179,0 325,-147 325,-326z"/>
   <path class="fil0" d="M10439 13956c-107,0 -202,47 -269,121l101 91c40,-55 101,-91 168,-91 119,0 137,61 137,105l0 47 -200 0c-135,0 -266,63 -266,238 0,125 105,219 266,219 57,0 148,-20 200,-89l0 76 146 0 0 -491c0,-104 -81,-226 -283,-226zm-601 601c-70,-32 -81,-74 -81,-191l0 -276 183 0 0 -120 -183 0 0 -227 -147 0 0 227 -85 0 0 120 85 0 0 276c0,111 0,149 43,221 45,74 119,101 203,101 39,0 66,-10 84,-22l0 -114c-21,10 -57,23 -102,5zm738 -103c0,49 -45,113 -180,113 -75,0 -129,-27 -138,-94 -10,-80 51,-124 138,-124l180 0 0 105zm710 -497c-68,0 -155,30 -202,69l0 -420 -146 0 0 1067 146 0 0 -52c56,41 134,67 202,67 203,0 352,-155 352,-365 0,-209 -149,-366 -352,-366zm-14 611c-80,0 -149,-37 -188,-112 -19,-39 -31,-84 -31,-133 0,-48 11,-94 31,-134 38,-75 108,-111 188,-111 121,0 219,101 219,245 0,143 -98,245 -219,245zm526 -192c0,230 121,323 312,309 83,-6 172,-63 192,-125l0 113 146 0 0 -703 -146 0 0 377c0,124 -56,220 -192,220 -121,0 -166,-63 -166,-205l0 -392 -146 0 0 406zm1177 -420c-106,0 -202,47 -269,121l101 91c40,-55 101,-91 168,-91 120,0 137,61 137,105l0 47 -199 0c-136,0 -267,63 -267,238 0,125 106,219 267,219 57,0 148,-20 199,-89l0 76 147 0 0 -491c0,-104 -81,-226 -284,-226zm137 498c0,49 -44,113 -179,113 -76,0 -130,-27 -138,-94 -10,-80 51,-124 138,-124l179 0 0 105zm322 -131c0,210 149,365 352,365 69,0 146,-26 202,-67l0 52 148 0 0 -1067 -148 0 0 420c-47,-39 -133,-69 -202,-69 -203,0 -352,157 -352,366zm148 0c0,-144 98,-245 218,-245 80,0 151,36 188,111 20,40 31,86 31,134 0,49 -12,94 -31,133 -38,75 -108,112 -188,112 -120,0 -218,-102 -218,-245zm1081 -367c-107,0 -202,47 -269,121l101 91c40,-55 101,-91 168,-91 119,0 137,61 137,105l0 47 -200 0c-135,0 -266,63 -266,238 0,125 105,219 266,219 57,0 148,-20 200,-89l0 76 146 0 0 -491c0,-104 -81,-226 -283,-226zm137 498c0,49 -45,113 -180,113 -75,0 -130,-27 -138,-94 -10,-80 51,-124 138,-124l180 0 0 105z"/>
   <path class="fil0" d="M9525 15730c0,209 149,364 351,364 70,0 147,-25 202,-67l0 53 149 0 0 -1068 -149 0 0 420c-47,-38 -132,-68 -202,-68 -202,0 -351,157 -351,366zm990 -500c-44,0 -80,-36 -80,-81 0,-44 36,-80 80,-80 45,0 81,36 81,80 0,45 -36,81 -81,81zm3101 0c-45,0 -81,-36 -81,-81 0,-44 36,-80 81,-80 44,0 80,36 80,80 0,45 -36,81 -80,81zm73 147l-146 0 0 703 146 0 0 -703zm-3100 0l-147 0 0 703 147 0 0 -703zm-916 353c0,-144 98,-245 218,-245 79,0 150,36 187,111 20,40 32,85 32,134 0,48 -12,94 -32,132 -37,76 -108,113 -187,113 -120,0 -218,-103 -218,-245zm1462 350l295 -703 -147 0 -194 491 -193 -491 -148 0 297 703 90 0zm1076 -350c0,-23 -1,-46 -5,-68 -30,-177 -130,-298 -348,-298 -217,0 -353,157 -353,366 0,209 140,364 368,364 158,0 235,-57 282,-121l-102 -91c-39,57 -113,93 -180,93 -91,0 -215,-63 -215,-192l553 0 0 -53zm-550 -68c0,-104 89,-177 197,-177 109,0 200,63 200,177l-397 0zm1132 -277c-20,-11 -61,-21 -100,-21 -84,0 -159,47 -176,112l0 -99 -147 0 0 703 147 0 0 -337c0,-143 57,-258 178,-258 26,0 57,10 67,16l31 -116zm444 578c-70,-30 -81,-74 -81,-190l0 -277 183 0 0 -119 -183 0 0 -228 -147 0 0 228 -85 0 0 119 85 0 0 277c0,111 0,149 43,220 45,74 119,101 203,101 39,0 66,-10 84,-21l0 -114c-21,10 -57,24 -102,4zm628 -233c0,209 149,364 351,364 70,0 147,-25 202,-67l0 53 148 0 0 -1068 -148 0 0 420c-47,-38 -132,-68 -202,-68 -202,0 -351,157 -351,366zm148 0c0,-144 98,-245 217,-245 80,0 151,36 188,111 20,40 32,85 32,134 0,48 -12,94 -32,132 -37,75 -108,113 -188,113 -119,0 -217,-103 -217,-245zm1080 -367c-106,0 -202,47 -269,121l101 91c40,-56 102,-91 168,-91 120,0 137,61 137,105l0 47 -199 0c-135,0 -266,63 -266,238 0,125 105,219 266,219 57,0 148,-20 199,-90l0 77 147 0 0 -491c0,-104 -81,-226 -284,-226zm137 498c0,48 -44,112 -179,112 -76,0 -130,-27 -138,-94 -10,-79 51,-124 138,-124l179 0 0 106z"/>
  </g>
 </g>
</svg>
